# xmcd CD database file
#
# Track frame offsets:
#	150
#	18030
#	45653
#
# Disc length: 844 seconds
#
# Revision: 0
# Processed by: cddbd v1.5.1PL0 Copyright (c) Steve Scherf et al.
# Submitted via: CDex 1.51
#
DISCID=16034a03
DTITLE=キングコング梶原 - おかん
DYEAR=2005
DGENRE=ポップ (一般)
TTITLE0=おかん
TTITLE1=おかん-次子mix-
TTITLE2=おかん-inst-
EXTD=YEAR: 2005
EXTT0=
EXTT1=
EXTT2=
PLAYORDER=
